<?xml version="1.0" standalone="no"?>
<!DOCTYPE svg PUBLIC "-//W3C//DTD SVG 20010904//EN"
 "http://www.w3.org/TR/2001/REC-SVG-20010904/DTD/svg10.dtd">
<svg version="1.0" xmlns="http://www.w3.org/2000/svg"
 width="16.000000pt" height="16.000000pt" viewBox="0 0 16.000000 16.000000"
 preserveAspectRatio="xMidYMid meet">
<metadata>
Created by potrace 1.11, written by Peter Selinger 2001-2013
</metadata>
<g transform="translate(0.000000,16.000000) scale(0.002286,-0.002286)"
fill="#000000" stroke="none">
<path d="M3478 6565 c-1 -1 -86 -6 -188 -9 -178 -6 -207 -8 -350 -22 -36 -3
-82 -8 -103 -9 -40 -4 -249 -33 -282 -39 -11 -2 -40 -7 -65 -11 -25 -4 -54 -9
-65 -11 -11 -2 -33 -7 -50 -10 -16 -3 -61 -12 -100 -20 -38 -8 -81 -17 -94
-20 -14 -3 -28 -7 -31 -9 -4 -2 -20 -7 -37 -9 -28 -5 -175 -44 -303 -80 -119
-33 -472 -164 -586 -216 -53 -24 -107 -79 -120 -122 -18 -56 -6 -111 52 -250
67 -162 86 -190 147 -223 76 -42 125 -37 302 33 132 52 285 105 450 155 190
59 608 146 775 162 36 3 72 8 80 10 8 3 46 7 83 9 37 3 105 9 150 13 112 9
569 10 695 0 112 -8 191 -16 237 -22 17 -2 53 -6 80 -10 28 -3 66 -8 85 -11
85 -11 334 -57 430 -80 58 -14 116 -28 129 -30 13 -3 63 -16 110 -30 47 -15
100 -30 116 -34 57 -14 221 -72 375 -133 167 -65 212 -72 282 -43 60 26 101
85 163 239 62 154 70 193 48 247 -29 71 -56 89 -259 171 -389 155 -927 300
-1284 345 -25 3 -52 7 -60 9 -8 2 -44 7 -80 10 -36 4 -67 8 -70 10 -3 2 -50 6
-105 10 -55 4 -109 9 -120 11 -11 2 -108 7 -215 10 -107 3 -200 7 -207 9 -6 2
-13 2 -15 0z"/>
<path d="M3387 5604 c-1 -1 -67 -4 -147 -8 -80 -3 -156 -8 -170 -10 -14 -3
-56 -7 -95 -11 -38 -3 -81 -8 -95 -10 -14 -2 -47 -6 -75 -9 -67 -8 -111 -15
-165 -26 -25 -5 -61 -12 -80 -14 -34 -5 -110 -21 -240 -52 -259 -62 -623 -190
-758 -266 -66 -38 -105 -92 -104 -148 1 -59 -10 -32 172 -435 10 -22 45 -101
78 -175 66 -150 103 -232 134 -300 11 -25 37 -83 58 -130 21 -47 49 -110 63
-140 14 -30 64 -143 112 -250 48 -107 97 -218 110 -245 12 -28 78 -174 145
-325 67 -151 132 -297 145 -325 13 -27 54 -117 90 -200 37 -82 80 -178 96
-213 16 -35 29 -65 29 -67 0 -2 15 -36 34 -77 19 -40 43 -93 54 -118 23 -53
259 -581 295 -660 14 -30 34 -75 45 -100 11 -25 49 -110 85 -190 36 -80 117
-262 180 -404 l115 -259 20 44 c11 24 61 136 112 249 51 113 103 230 117 260
14 30 31 69 38 85 66 150 152 342 176 393 16 35 29 65 29 67 0 2 15 36 34 77
18 40 93 206 166 368 196 439 210 471 232 520 11 25 87 194 168 375 140 314
163 364 215 480 13 28 50 111 83 185 33 74 71 160 85 190 13 30 52 116 85 190
94 211 112 252 134 299 11 25 57 128 103 230 45 102 94 211 108 241 140 307
148 340 107 422 -30 60 -85 95 -265 166 -240 96 -617 208 -795 237 -19 3 -60
10 -90 15 -30 5 -68 11 -85 14 -16 2 -48 7 -70 11 -22 3 -56 7 -75 10 -19 2
-55 7 -80 10 -133 17 -649 40 -663 29z m-652 -369 c46 -12 126 -54 172 -92
190 -156 203 -463 26 -636 -175 -172 -444 -173 -614 -4 -84 85 -127 188 -127
309 0 214 147 389 363 431 29 6 145 0 180 -8z m1798 -454 c109 -43 206 -140
248 -249 31 -78 34 -205 9 -287 -38 -119 -142 -231 -257 -276 -87 -34 -223
-35 -305 -3 -73 28 -99 45 -156 98 -167 156 -176 433 -19 603 54 59 87 81 166
114 58 23 78 26 161 25 72 -2 109 -8 153 -25z m-879 -1571 c242 -91 350 -375
231 -610 -29 -57 -117 -149 -166 -175 -141 -72 -301 -75 -422 -8 -349 194
-289 705 96 807 70 19 189 13 261 -14z"/>
</g>
</svg>
